<?xml version="1.0" standalone="no"?><!DOCTYPE svg PUBLIC "-//W3C//DTD SVG 1.1//EN" "http://www.w3.org/Graphics/SVG/1.1/DTD/svg11.dtd"><svg xmlns:xlink="http://www.w3.org/1999/xlink" version="1.1" style="font-family:'lucida grande', 'lucida sans unicode', arial, helvetica, sans-serif;font-size:12px;" xmlns="http://www.w3.org/2000/svg" width="600" height="400"><desc>Created with Highcharts 4.2.7</desc><defs><clipPath id="highcharts-4"><rect x="0" y="0" width="600" height="400"></rect></clipPath></defs><g class="highcharts-series-group"><g class="highcharts-series highcharts-series-0" transform="translate(10,38) scale(1 1)"><path fill="rgb(55,155,25)" d="M 352.9141058114076 247.37644529302642 L 352.9141058114076 255.3313965813751 L 290 162.95495128834867 L 290 155 Z" transform="translate(0,0)" visibility="visible"></path><path fill="rgb(212,61,2)" d="M 352.9127994080441 247.37689015831612 L 352.9127994080441 255.33184144666478 L 290 162.95495128834867 L 290 155 Z" transform="translate(0,0)" visibility="visible"></path><path fill="rgb(55,155,25)" d="M 289.9704673854642 52.46951885457506 L 289.9704673854642 60.42447014292372 L 290 162.95495128834867 L 290 155 Z" transform="translate(0,0)" visibility="visible"></path><path fill="rgb(212,61,2)" d="M 289.94214784575485 52.4695248886258 L 289.94214784575485 60.42447617697446 L 290 162.95495128834867 L 290 155 Z" transform="translate(0,0)" visibility="visible"></path><path fill="rgb(55,155,25)" d="M 435 155 C 435 195.44689287912175 404.44983253307777 229.82692737344206 352.9141058114076 247.37644529302642 L 352.9141058114076 255.3313965813751 C 404.44983253307777 237.78187866179073 435 203.40184416747041 435 162.95495128834867 Z" transform="translate(0,0)" visibility="visible"></path><path fill="rgb(55,155,25)" d="M 290 155 C 290 155 290 155 290 155 C 290 155 290 155 290 155 L 290 162.95495128834867 C 290 162.95495128834867 290 162.95495128834867 290 162.95495128834867 C 290 162.95495128834867 290 162.95495128834867 290 162.95495128834867 Z" transform="translate(0,0)" visibility="visible"></path><path fill="rgb(212,61,2)" d="M 352.9127994080441 247.37689015831612 C 280.76196020152156 271.9458665892323 194.10512877048626 250.50441475608935 159.35934908825968 199.48606708485704 C 149.43204150101437 184.90948153814043 145 171.17876893235814 145 155 L 145 162.95495128834867 C 145 106.34331192622359 209.8812060439279 60.44706311002582 289.94214784575485 60.42447617697446 L 289.94214784575485 52.4695248886258 C 209.8812060439279 52.49211182167716 145 98.38836063787494 145 155 L 145 162.95495128834867 C 145 219.58097359228285 209.91871127453493 265.48543456039806 290 265.48543456039806 C 312.88023444664134 265.48543456039806 332.29839443478585 262.35150796053057 352.9127994080441 255.33184144666478 Z" transform="translate(0,0)" visibility="visible"></path><path fill="rgb(212,61,2)" d="M 290 155 C 290 155 290 155 290 155 C 290 155 290 155 290 155 C 290 155 290 155 290 155 L 290 162.95495128834867 C 290 162.95495128834867 290 162.95495128834867 290 162.95495128834867 C 290 162.95495128834867 290 162.95495128834867 290 162.95495128834867 C 290 162.95495128834867 290 162.95495128834867 290 162.95495128834867 Z" transform="translate(0,0)" visibility="visible"></path><g stroke="#50B432" stroke-width="1" stroke-linejoin="round"><path fill="#50B432" d="M 289.9704673854642 52.46951885457506 C 370.0517544499322 52.4579856511999 434.98368657986805 98.35309615856364 434.99999699249884 154.97911728799556 C 435.01164932549034 195.43335159339847 404.45918773823894 229.82374163509974 352.9141058114076 247.37644529302642 L 290 155 C 290 155 290 155 290 155 C 290 155 290 155 290 155 Z" transform="translate(0,0)" visibility="visible"></path></g><g stroke="#ED561B" stroke-width="1" stroke-linejoin="round"><path fill="#ED561B" d="M 352.9127994080441 247.37689015831612 C 280.76196020152156 271.9458665892323 194.10512877048626 250.50441475608935 159.35934908825968 199.48606708485704 C 124.6135694060331 148.46771941362474 154.9363613854333 87.19208627260008 227.08720059195582 62.6231098416839 C 247.6832793385154 55.60968381839004 267.0822557699668 52.47597416139548 289.94214784575485 52.4695248886258 L 290 155 C 290 155 290 155 290 155 C 290 155 290 155 290 155 C 290 155 290 155 290 155 Z" transform="translate(0,0)" visibility="visible"></path></g></g><g class="highcharts-markers highcharts-series-0" transform="translate(10,38) scale(1 1)"></g></g><text x="300" text-anchor="middle" class="highcharts-title" style="color:#000000;font-size:10px;font-family:'arial', sans-serif;fill:#000000;width:536px;" y="17"><tspan>Branch wise student ratio</tspan></text><g class="highcharts-data-labels highcharts-series-0" transform="translate(10,38) scale(1 1)" opacity="1"><path fill="none" d="M 467.49793558338433 125.51335523545318 C 462.49793558338433 125.51335523545318 452.81296133436456 127.2935227071037 442.0887543003645 129.74125298062316 L 431.3645472663644 132.1889832541426" stroke="#50B432" stroke-width="1"></path><path fill="none" d="M 112.50140870950827 184.48280859748422 C 117.50140870950827 184.48280859748422 127.18703866563544 182.7026411258337 137.91124569963551 180.25491085231425 L 148.6354527336356 177.8071805787948" stroke="#ED561B" stroke-width="1"></path><g style="cursor:pointer;" transform="translate(472,116)"><text x="5" style="font-size: 10px; font-weight: bold; font-family: 'arial', sans-serif; color: rgb(0, 0, 0); fill: rgb(0, 0, 0); text-rendering: geometricprecision; text-shadow: rgb(255, 255, 255) 0px 0px 6px, rgb(255, 255, 255) 0px 0px 3px;" y="15"><tspan>CSE : 9</tspan></text></g><g style="cursor:pointer;" transform="translate(57,174)"><text x="5" style="font-size: 10px; font-weight: bold; font-family: 'arial', sans-serif; color: rgb(0, 0, 0); fill: rgb(0, 0, 0); text-rendering: geometricprecision; text-shadow: rgb(255, 255, 255) 0px 0px 6px, rgb(255, 255, 255) 0px 0px 3px;" y="15"><tspan>ECE : 12</tspan></text></g></g><g class="highcharts-legend" transform="translate(236,360)"><g><g><g class="highcharts-legend-item" transform="translate(8,3)"><text x="21" style="color:#333;font-size:9pt;font-weight:normal;cursor:pointer;font-family:'lucida grande','lucida sans unicode',arial,helvetica,sans-serif;text-transform:none;fill:#333;" text-anchor="start" y="15">CSE</text><rect x="0" y="4" width="16" height="12" fill="#50B432"></rect></g><g class="highcharts-legend-item" transform="translate(74,3)"><text x="21" y="15" style="color:#333;font-size:9pt;font-weight:normal;cursor:pointer;font-family:'lucida grande','lucida sans unicode',arial,helvetica,sans-serif;text-transform:none;fill:#333;" text-anchor="start">ECE</text><rect x="0" y="4" width="16" height="12" fill="#ED561B"></rect></g></g></g></g><g class="highcharts-tooltip" display="none" style="cursor:default;padding:0;pointer-events:none;white-space:nowrap;" transform="translate(0,0)"><path fill="none" d="M 3.5 0.5 L 13.5 0.5 C 16.5 0.5 16.5 0.5 16.5 3.5 L 16.5 13.5 C 16.5 16.5 16.5 16.5 13.5 16.5 L 3.5 16.5 C 0.5 16.5 0.5 16.5 0.5 13.5 L 0.5 3.5 C 0.5 0.5 0.5 0.5 3.5 0.5"  stroke="black" stroke-opacity="0.049999999999999996" stroke-width="5" transform="translate(1, 1)"></path><path fill="none" d="M 3.5 0.5 L 13.5 0.5 C 16.5 0.5 16.5 0.5 16.5 3.5 L 16.5 13.5 C 16.5 16.5 16.5 16.5 13.5 16.5 L 3.5 16.5 C 0.5 16.5 0.5 16.5 0.5 13.5 L 0.5 3.5 C 0.5 0.5 0.5 0.5 3.5 0.5"  stroke="black" stroke-opacity="0.09999999999999999" stroke-width="3" transform="translate(1, 1)"></path><path fill="none" d="M 3.5 0.5 L 13.5 0.5 C 16.5 0.5 16.5 0.5 16.5 3.5 L 16.5 13.5 C 16.5 16.5 16.5 16.5 13.5 16.5 L 3.5 16.5 C 0.5 16.5 0.5 16.5 0.5 13.5 L 0.5 3.5 C 0.5 0.5 0.5 0.5 3.5 0.5"  stroke="black" stroke-opacity="0.15" stroke-width="1" transform="translate(1, 1)"></path><path fill="rgb(249, 249, 249)" fill-opacity=" .85" d="M 3.5 0.5 L 13.5 0.5 C 16.5 0.5 16.5 0.5 16.5 3.5 L 16.5 13.5 C 16.5 16.5 16.5 16.5 13.5 16.5 L 3.5 16.5 C 0.5 16.5 0.5 16.5 0.5 13.5 L 0.5 3.5 C 0.5 0.5 0.5 0.5 3.5 0.5"></path><text x="8" style="font-size:12px;color:#000000;fill:#000000;" y="20"></text></g><text x="590" text-anchor="end" style="cursor:pointer;color:#909090;font-size:9px;fill:#909090;" y="395">meta-chart.com</text></svg>